<svg xmlns="http://www.w3.org/2000/svg" viewBox="0 0 512 512">
  <rect width="512" height="512" rx="96" fill="#f7f8fb"/>
  <circle cx="256" cy="268" r="156" fill="#ffffff" stroke="#d9dee8" stroke-width="18"/>
  <path d="M256 126c58 48 92 101 92 156 0 58-41 102-92 102s-92-44-92-102c0-55 34-108 92-156z" fill="#2563eb"/>
  <path d="M258 146c-18 58-14 111 10 158 13 26 34 48 62 66-19 23-45 36-74 36-51 0-92-44-92-102 0-55 35-110 94-158z" fill="#1f9d55"/>
  <path d="M224 206c-45-5-82-34-99-73 51-18 105 0 136 43 14 20-13 34-37 30z" fill="#1f9d55"/>
  <path d="M286 202c43-12 73-48 81-90-54-9-104 18-127 65-10 22 23 32 46 25z" fill="#1f9d55"/>
  <circle cx="330" cy="160" r="38" fill="#dc2626"/>
</svg>
